# xmcd
#
# Track frame offsets: 
#        150
#        16340
#        36874
#        56147
#        76224
#        96300
#        109357
#        129950
#        142833
#        163013
#        180744
#        197326
#        219452
#        240722
#        258367
#        281392
#        306610
#        325676
#        346984
#
# Disc length: 4745 seconds
#
# Revision: 0
# Processed by: cddbd v1.5.2PL0 Copyright (c) Steve Scherf et al.
# Submitted via: ExactAudioCopy v0.99pb5
#
DISCID=0d128713
DTITLE=Кирилл Комаров - Лучшие вещи
DYEAR=2009
DGENRE=
TTITLE0=Сияй
TTITLE1=Шум в моей голове
TTITLE2=У входа в рай (водолаз)
TTITLE3=Дым (вместе с М. Борзыкиным)
TTITLE4=Сделано для обезьян
TTITLE5=Быть лохом
TTITLE6=Когда ты придешь
TTITLE7=И восходит солнце
TTITLE8=Стоя на краю любви
TTITLE9=Ангел метро
TTITLE10=Внутри моих глаз
TTITLE11=Мы никогда не умрем (вместе с К. Арбениным и М. Башаковым)
TTITLE12=Снег идет вверх
TTITLE13=Арамболь
TTITLE14=В эту субботу
TTITLE15=Крутототут (вместе с Василием К.)
TTITLE16=Сегодня ночью ты думал о ней
TTITLE17=Путь дурака
TTITLE18=Приятная правда
EXTD=
EXTT0=
EXTT1=
EXTT2=
EXTT3=
EXTT4=
EXTT5=
EXTT6=
EXTT7=
EXTT8=
EXTT9=
EXTT10=
EXTT11=
EXTT12=
EXTT13=
EXTT14=
EXTT15=
EXTT16=
EXTT17=
EXTT18=
PLAYORDER=
